# xmcd
#
# Track frame offsets:
#	150
#	14027
#	31687
#	51210
#	66007
#	86172
#	105070
#	121312
#	136525
#	151965
#	168955
#
# Disc length: 2489 seconds
#
# Revision: 3
# Processed by: cddbd v1.5.2PL0 Copyright (c) Steve Scherf et al.
# Submitted via: dBpowerAMP V4.0
#
DISCID=7c09b70b
DTITLE=Farmer's Daughter - Girls Will Be Girls
DYEAR=1993
DGENRE=Country
TTITLE0=Girls Will Be Girls
TTITLE1=I Wanna Hold You
TTITLE2=She Still Haunts You
TTITLE3=Crazy Ole Moon
TTITLE4=You Wish
TTITLE5=Borderline Angel
TTITLE6=Son Of A Preacher Man
TTITLE7=Family Love
TTITLE8=Fallin' Outta Of Love
TTITLE9=Callin' All You Cowboys
TTITLE10=I Need A Little Tenderness
EXTD=
EXTT0=
EXTT1=
EXTT2=
EXTT3=
EXTT4=
EXTT5=
EXTT6=
EXTT7=
EXTT8=
EXTT9=
EXTT10=
PLAYORDER=
